<svg xmlns="http://www.w3.org/2000/svg">
    <defs>
        <symbol id="account" viewBox="0 0 32 40">
            <path d="M16,2.25A13.72949,13.72949,0,0,0,6.72681,26.1228h.00024a13.66677,13.66677,0,0,0,18.5459,0h.00024A13.72949,13.72949,0,0,0,16,2.25ZM7.95532,25.2157a8.23748,8.23748,0,0,1,16.08936,0,12.18137,12.18137,0,0,1-16.08936,0ZM11.75,13A4.25,4.25,0,1,1,16,17.25,4.25475,4.25475,0,0,1,11.75,13ZM25.26465,23.991a9.698,9.698,0,0,0-6.08325-6.20533,5.75,5.75,0,1,0-6.3628,0A9.698,9.698,0,0,0,6.73535,23.991a12.25,12.25,0,1,1,18.5293,0Z"/>
        </symbol>
        <symbol id="rankings" viewBox="0 0 100 100">
             <path d="m90.805 96.379h-81.609c-0.83203-0.015625-1.625-0.35547-2.1992-0.95703-0.57812-0.59766-0.89453-1.3984-0.87891-2.2305 0.015624-0.83203 0.36328-1.6211 0.96484-2.1953 0.59766-0.57812 1.4023-0.88672 2.2344-0.86719v-25.133c0-0.82812 0.32812-1.6211 0.91406-2.207 0.58594-0.58594 1.3828-0.91797 2.2109-0.91797h21.914v-16.875c0-0.82812 0.33203-1.625 0.91797-2.2109 0.58594-0.58594 1.3789-0.91406 2.207-0.91406h2.4453c-0.37891-2.0039 0.19922-4.0664 1.5625-5.582 1.3633-1.5156 3.3555-2.3047 5.3867-2.1367v-2.7617c-2.4688-0.62891-4.6953-1.9805-6.3906-3.8789l-5.8984-1.3555v-0.003906c-4.0625-0.9375-6.9336-4.5547-6.9297-8.7227v-3.3594c-0.003906-3.3789 2.7266-6.125 6.1055-6.1367h3.4766c-0.25391-2.1523 0.71484-4.2695 3.125-4.3125h19.273c2.3984 0.039062 3.3828 2.1602 3.125 4.3125h3.4766c3.3789 0.011718 6.1094 2.7578 6.1016 6.1367v3.3594c0.011718 4.1602-2.8516 7.7734-6.9062 8.7188l-5.9219 1.3594 0.003906 0.003907c-1.6953 1.8984-3.9219 3.25-6.3906 3.8789v2.7617c1.7656-0.18359 3.5234 0.38672 4.8477 1.5703 1.3203 1.1836 2.0859 2.8672 2.1016 4.6406v1.5078h2.4453c0.82812 0 1.6211 0.32812 2.207 0.91406 0.58594 0.58594 0.91797 1.3828 0.91797 2.2109v9.6758h21.914c0.82812 0 1.625 0.32812 2.2109 0.91406 0.58594 0.58594 0.91406 1.3828 0.91406 2.2109l0.12109 32.332c1.7109 0.023438 3.082 1.4141 3.082 3.125 0 1.707-1.3711 3.0977-3.082 3.125zm-25.16-6.25h18.789v-29.207h-18.789zm-25.035 0h18.785v-42.008h-18.789zm-25.039 0h18.789v-22.004l-18.793-0.003906zm30.586-48.258h7.6719v-1.4727h-7.6836zm7.707-1.4727m-10.375-29.062v7.6797c0.035157 3.5703 2.9414 6.4453 6.5117 6.4453s6.4766-2.875 6.5117-6.4453c0.003906-1.0469-0.007813-8.2773 0-9.1406l-13.023-0.003906c-0.015625 0.37891 0.023438 1.0977 0 1.4648zm-9.7266 2.8477 0.14844 3.2461c-0.011718 1.9336 1.7344 2.7148 3.3984 2.9375-0.12891-0.93359-0.050782-5.1758-0.070313-6.1836zm29-0.054688c-0.019531 1.0391 0.058593 5.2812-0.070313 6.2383 1.6641-0.22266 3.4062-0.98828 3.3984-2.9375v-3.3594z"/>
        <symbol id="friends" viewBox="0 0 32 40">
            <path d="M27.35107,14.89771a3.75008,3.75008,0,1,0-4.70214,0A4.73414,4.73414,0,0,0,20.25,19v.14087A5.7708,5.7708,0,0,0,18.56836,17.863a4.25006,4.25006,0,1,0-5.13672,0A5.7708,5.7708,0,0,0,11.75,19.14087V19a4.73414,4.73414,0,0,0-2.39893-4.10229,3.75008,3.75008,0,1,0-4.70214,0A4.73414,4.73414,0,0,0,2.25,19v1A2.7528,2.7528,0,0,0,5,22.75H9a2.71394,2.71394,0,0,0,1.2793-.33044c-.01905.19091-.0293.38452-.0293.58044v2A2.7528,2.7528,0,0,0,13,27.75h6A2.7528,2.7528,0,0,0,21.75,25V23c0-.19592-.01025-.38953-.0293-.58044A2.71394,2.71394,0,0,0,23,22.75h4A2.7528,2.7528,0,0,0,29.75,20V19A4.73414,4.73414,0,0,0,27.35107,14.89771ZM4.75,12A2.25,2.25,0,1,1,7,14.25,2.25246,2.25246,0,0,1,4.75,12Zm5.5,8A1.25116,1.25116,0,0,1,9,21.25H5A1.25116,1.25116,0,0,1,3.75,20V19a3.25,3.25,0,0,1,6.5,0Zm3-5.5A2.75,2.75,0,1,1,16,17.25,2.7528,2.7528,0,0,1,13.25,14.5Zm7,10.5A1.25116,1.25116,0,0,1,19,26.25H13A1.25116,1.25116,0,0,1,11.75,25V23a4.25,4.25,0,0,1,8.5,0Zm2.5-13A2.25,2.25,0,1,1,25,14.25,2.25246,2.25246,0,0,1,22.75,12Zm5.5,8A1.25116,1.25116,0,0,1,27,21.25H23A1.25116,1.25116,0,0,1,21.75,20V19a3.25,3.25,0,0,1,6.5,0Z"/>
        </symbol>
  </defs>
</svg>

